<svg width="38" height="37" viewBox="0 0 38 37" fill="none" xmlns="http://www.w3.org/2000/svg">
<path d="M37.3523 18.1612C37.3523 8.13018 29.1561 0 19.045 0C8.93394 0 0.737671 8.13018 0.737671 18.1612C0.737671 27.2237 7.43261 34.7364 16.1842 36.0985V23.4098H11.5368V18.1597H16.1842V14.1597C16.1842 9.60729 18.9184 7.09348 23.0989 7.09348C25.1022 7.09348 27.197 7.44762 27.197 7.44762V11.9168H24.8901C22.6168 11.9168 21.9073 13.3167 21.9073 14.753V18.1612H26.9849L26.1733 23.4113H21.9073V36.1C30.6589 34.7379 37.3539 27.2252 37.3539 18.1612H37.3523Z" fill="white"/>
</svg>
