<svg width="60" height="60" viewBox="0 0 60 60" fill="none" xmlns="http://www.w3.org/2000/svg">
<g clip-path="url(#clip0_13_264)">
<rect width="60" height="60" rx="30" fill="white"/>
<g clip-path="url(#clip1_13_264)">
<path d="M38.8676 27.3191L28.5661 20.4494C28.0804 20.1253 27.5157 19.9393 26.9325 19.9112C26.3493 19.8832 25.7694 20.0142 25.2548 20.2902C24.7402 20.5661 24.3103 20.9768 24.011 21.4781C23.7117 21.9795 23.5543 22.5528 23.5555 23.1367V36.873C23.5555 37.4564 23.7137 38.0288 24.0135 38.5293C24.3133 39.0297 24.7433 39.4394 25.2576 39.7146C25.772 39.9898 26.3514 40.1202 26.9341 40.0919C27.5168 40.0636 28.0808 39.8777 28.5661 39.5539L38.8676 32.6841C39.3089 32.3899 39.6707 31.9912 39.921 31.5235C40.1712 31.0559 40.3022 30.5337 40.3022 30.0032C40.3022 29.4728 40.1712 28.9506 39.921 28.4829C39.6707 28.0153 39.3089 27.6134 38.8676 27.3191Z" stroke="#E3007A" stroke-width="2" stroke-linecap="round" stroke-linejoin="round"/>
<path d="M59 30C59 33.8083 58.2499 37.5794 56.7925 41.0978C55.3351 44.6163 53.199 47.8132 50.5061 50.5061C47.8132 53.199 44.6163 55.3351 41.0978 56.7925C37.5794 58.2499 33.8083 59 30 59C26.1917 59 22.4206 58.2499 18.9022 56.7925C15.3837 55.3351 12.1868 53.199 9.4939 50.5061C6.801 47.8132 4.66488 44.6163 3.20749 41.0978C1.75011 37.5794 1 33.8083 1 30C1 22.3087 4.05535 14.9325 9.4939 9.4939C14.9325 4.05535 22.3087 1 30 1C37.6913 1 45.0675 4.05535 50.5061 9.4939C55.9447 14.9325 59 22.3087 59 30Z" stroke="#E3007A" stroke-width="2" stroke-linecap="round" stroke-linejoin="round"/>
</g>
</g>
<defs>
<clipPath id="clip0_13_264">
<rect width="60" height="60" rx="30" fill="white"/>
</clipPath>
<clipPath id="clip1_13_264">
<rect width="60" height="60" fill="white"/>
</clipPath>
</defs>
</svg>
