<svg width="37" height="37" viewBox="0 0 37 37" fill="none" xmlns="http://www.w3.org/2000/svg">
<path d="M21.2352 17.736L16.9779 15.7655C16.6064 15.5944 16.3012 15.7862 16.3012 16.1942V19.9058C16.3012 20.3138 16.6064 20.5056 16.9779 20.3345L21.2333 18.364C21.6067 18.191 21.6067 17.909 21.2352 17.736ZM18.1967 0C8.14682 0 0 8.08113 0 18.05C0 28.0189 8.14682 36.1 18.1967 36.1C28.2466 36.1 36.3934 28.0189 36.3934 18.05C36.3934 8.08113 28.2466 0 18.1967 0ZM18.1967 25.3828C8.88228 25.3828 8.71926 24.5499 8.71926 18.05C8.71926 11.5501 8.88228 10.7172 18.1967 10.7172C27.5112 10.7172 27.6742 11.5501 27.6742 18.05C27.6742 24.5499 27.5112 25.3828 18.1967 25.3828Z" fill="white"/>
</svg>
