<svg width="40" height="40" viewBox="0 0 40 40" fill="none" xmlns="http://www.w3.org/2000/svg">
<rect width="40" height="40" rx="20" fill="#FFD4EB"/>
<g clip-path="url(#clip0_13_308)">
<path fill-rule="evenodd" clip-rule="evenodd" d="M19.7783 32C22.9609 32 26.0132 30.7357 28.2636 28.4853C30.514 26.2348 31.7783 23.1826 31.7783 20C31.7783 16.8174 30.514 13.7652 28.2636 11.5147C26.0132 9.26428 22.9609 8 19.7783 8C16.5957 8 13.5435 9.26428 11.293 11.5147C9.0426 13.7652 7.77832 16.8174 7.77832 20C7.77832 23.1826 9.0426 26.2348 11.293 28.4853C13.5435 30.7357 16.5957 32 19.7783 32ZM21.2783 14C21.2783 13.6022 21.1203 13.2206 20.839 12.9393C20.5577 12.658 20.1761 12.5 19.7783 12.5C19.3805 12.5 18.999 12.658 18.7177 12.9393C18.4364 13.2206 18.2783 13.6022 18.2783 14V20C18.2784 20.3978 18.4365 20.7793 18.7178 21.0605L22.9598 25.304C23.0992 25.4434 23.2646 25.5539 23.4467 25.6293C23.6288 25.7048 23.824 25.7436 24.0211 25.7436C24.2182 25.7436 24.4133 25.7048 24.5954 25.6293C24.7775 25.5539 24.943 25.4434 25.0823 25.304C25.2217 25.1646 25.3322 24.9992 25.4077 24.8171C25.4831 24.635 25.5219 24.4398 25.5219 24.2428C25.5219 24.0457 25.4831 23.8505 25.4077 23.6684C25.3322 23.4863 25.2217 23.3209 25.0823 23.1815L21.2783 19.379V14Z" fill="#E3007A"/>
</g>
<defs>
<clipPath id="clip0_13_308">
<rect width="25" height="25" fill="white" transform="translate(6.77832 7)"/>
</clipPath>
</defs>
</svg>
