<svg xmlns="http://www.w3.org/2000/svg" width="38" height="37" fill="none" viewBox="0 0 38 37"><path fill="#fff" d="M26.454 12.505a3.1 3.1 0 0 0-.71-1.081 3.1 3.1 0 0 0-1.09-.703 5.3 5.3 0 0 0-1.76-.323c-.998-.046-1.298-.057-3.828-.057s-2.83.011-3.83.057a5.3 5.3 0 0 0-1.76.323 3.13 3.13 0 0 0-1.8 1.786 5.2 5.2 0 0 0-.325 1.745c-.046.99-.057 1.288-.057 3.798s.011 2.807.057 3.798c.007.597.117 1.187.326 1.747a3.14 3.14 0 0 0 1.8 1.784 5.3 5.3 0 0 0 1.76.323c.999.046 1.298.055 3.829.055 2.53 0 2.83-.01 3.829-.056a5.3 5.3 0 0 0 1.76-.322 3.14 3.14 0 0 0 1.8-1.786 5.2 5.2 0 0 0 .325-1.745c.046-.99.055-1.288.055-3.798s-.01-2.807-.057-3.798a5.2 5.2 0 0 0-.324-1.747m-7.388 10.373a4.9 4.9 0 0 1-2.705-.813 4.84 4.84 0 0 1-1.793-2.167 4.8 4.8 0 0 1-.277-2.79 4.8 4.8 0 0 1 1.333-2.472 4.9 4.9 0 0 1 5.305-1.047 4.86 4.86 0 0 1 2.184 1.778 4.8 4.8 0 0 1-.605 6.097 4.9 4.9 0 0 1-3.442 1.414m5.059-8.718a1.14 1.14 0 0 1-1.051-.697 1.12 1.12 0 0 1 .246-1.229 1.14 1.14 0 0 1 1.24-.245 1.14 1.14 0 0 1 .702 1.043c0 .299-.12.586-.333.797s-.503.33-.804.33m-1.9 3.89c0 .62-.185 1.226-.532 1.741s-.84.918-1.418 1.155a3.18 3.18 0 0 1-3.444-.68 3.11 3.11 0 0 1-.685-3.416 3.14 3.14 0 0 1 1.164-1.406 3.18 3.18 0 0 1 3.99.39c.592.588.925 1.385.925 2.216M19.065 0A18.3 18.3 0 0 0 8.957 3.042a18.1 18.1 0 0 0-6.702 8.1 17.9 17.9 0 0 0-1.036 10.43 18 18 0 0 0 4.98 9.241 18.24 18.24 0 0 0 9.318 4.94c3.53.697 7.188.34 10.513-1.027a18.17 18.17 0 0 0 8.167-6.648 17.94 17.94 0 0 0 3.066-10.028c0-4.787-1.917-9.378-5.33-12.763A18.27 18.27 0 0 0 19.067 0m9.421 21.925a6.9 6.9 0 0 1-.442 2.283 4.8 4.8 0 0 1-1.092 1.665 4.85 4.85 0 0 1-1.679 1.083 7 7 0 0 1-2.299.439c-1.012.045-1.334.056-3.908.056-2.575 0-2.897-.011-3.909-.056a7 7 0 0 1-2.3-.439 4.85 4.85 0 0 1-1.677-1.084 4.8 4.8 0 0 1-1.093-1.664 6.9 6.9 0 0 1-.442-2.281c-.046-1.004-.057-1.324-.057-3.877s.011-2.873.057-3.877c.016-.78.164-1.55.44-2.28a4.8 4.8 0 0 1 1.093-1.667 4.85 4.85 0 0 1 1.68-1.084 7 7 0 0 1 2.3-.437c1.011-.045 1.333-.056 3.908-.056 2.574 0 2.896.011 3.908.056a7 7 0 0 1 2.3.437 4.83 4.83 0 0 1 2.77 2.75c.277.73.426 1.502.442 2.281.046 1.004.057 1.324.057 3.877s-.011 2.871-.057 3.875"/></svg>