<svg xmlns="http://www.w3.org/2000/svg" width="39" height="39" fill="none" viewBox="0 0 39 39"><path fill="#000" d="M12.675 3.25h13.65c5.2 0 9.425 4.225 9.425 9.425v13.65a9.425 9.425 0 0 1-9.425 9.425h-13.65c-5.2 0-9.425-4.225-9.425-9.425v-13.65a9.425 9.425 0 0 1 9.425-9.425M12.35 6.5a5.85 5.85 0 0 0-5.85 5.85v14.3a5.846 5.846 0 0 0 5.85 5.85h14.3a5.85 5.85 0 0 0 5.85-5.85v-14.3a5.846 5.846 0 0 0-5.85-5.85zm15.681 2.438a2.031 2.031 0 1 1 0 4.062 2.031 2.031 0 0 1 0-4.062M19.5 11.375a8.125 8.125 0 1 1 0 16.25 8.125 8.125 0 0 1 0-16.25m0 3.25a4.875 4.875 0 1 0 0 9.75 4.875 4.875 0 0 0 0-9.75"/></svg>