<svg xmlns="http://www.w3.org/2000/svg" width="60" height="60" fill="none" viewBox="0 0 60 60"><g clip-path="url(#a)"><rect width="60" height="60" fill="#fff" rx="30"/><g stroke="#E3007A" stroke-linecap="round" stroke-linejoin="round" stroke-width="2" clip-path="url(#b)"><path d="m38.868 27.32-10.302-6.87a3.223 3.223 0 0 0-5.01 2.687v13.736a3.223 3.223 0 0 0 5.01 2.68l10.302-6.869a3.22 3.22 0 0 0 1.053-4.201 3.2 3.2 0 0 0-1.053-1.164"/><path d="M59 30a29 29 0 1 1-58 0 29 29 0 0 1 58 0"/></g></g><defs><clipPath id="a"><rect width="60" height="60" fill="#fff" rx="30"/></clipPath><clipPath id="b"><path fill="#fff" d="M0 0h60v60H0z"/></clipPath></defs></svg>