<svg xmlns="http://www.w3.org/2000/svg" width="40" height="40" fill="none" viewBox="0 0 40 40"><rect width="40" height="40" fill="#FFD4EB" rx="20"/><path fill="#E3007A" fill-rule="evenodd" d="M14.004 10.183a4.6 4.6 0 0 0 2.618-1.085 4.6 4.6 0 0 1 5.964 0 4.6 4.6 0 0 0 2.617 1.084 4.6 4.6 0 0 1 4.218 4.218 4.6 4.6 0 0 0 1.085 2.618 4.6 4.6 0 0 1 0 5.964 4.6 4.6 0 0 0-1.085 2.617 4.6 4.6 0 0 1-4.218 4.218 4.6 4.6 0 0 0-2.617 1.085 4.6 4.6 0 0 1-5.964 0 4.6 4.6 0 0 0-2.618-1.085A4.6 4.6 0 0 1 9.786 25.6a4.6 4.6 0 0 0-1.084-2.617 4.6 4.6 0 0 1 0-5.964A4.6 4.6 0 0 0 9.786 14.4a4.6 4.6 0 0 1 4.218-4.218m11.16 7.878a1.5 1.5 0 0 0-2.12-2.121l-4.94 4.939-1.94-1.94a1.5 1.5 0 0 0-2.12 2.122l3 3a1.5 1.5 0 0 0 2.12 0z" clip-rule="evenodd"/></svg>