<svg xmlns="http://www.w3.org/2000/svg" width="40" height="40" fill="none" viewBox="0 0 40 40"><rect width="40" height="40" fill="#FFD4EB" rx="20"/><path fill="#E3007A" d="M24 14.75a3.75 3.75 0 1 1-7.5 0 3.75 3.75 0 0 1 7.5 0m6.25 2.5a2.5 2.5 0 1 1-5 0 2.5 2.5 0 0 1 5 0m-5 8.75a5 5 0 1 0-10 0v3.75h10zm-10-8.75a2.5 2.5 0 1 1-5 0 2.5 2.5 0 0 1 5 0m12.5 12.5V26a7.5 7.5 0 0 0-.937-3.633A3.757 3.757 0 0 1 31.5 26v3.75zm-14.062-7.382A7.5 7.5 0 0 0 12.75 26v3.75H9V26a3.75 3.75 0 0 1 4.688-3.633"/></svg>