<svg xmlns="http://www.w3.org/2000/svg" width="37" height="37" fill="none" viewBox="0 0 37 37"><path fill="#fff" d="M18.782 0q3.782 0 7.087 1.423t5.783 3.86a18.1 18.1 0 0 1 3.913 5.715Q37 14.277 37 18.028q0 3.753-1.435 7.03a18.4 18.4 0 0 1-3.913 5.737 18.5 18.5 0 0 1-5.783 3.882Q22.564 36.1 18.782 36.1q-3.783 0-7.088-1.423-3.304-1.424-5.761-3.882a18.6 18.6 0 0 1-3.892-5.736Q.607 21.78.607 18.029q0-3.753 1.434-7.03Q3.476 7.72 5.933 5.282q2.457-2.435 5.761-3.86Q15 0 18.782 0m9.044 14.147q1.26-.95 2.217-2.286a9.4 9.4 0 0 1-2.565.69 5 5 0 0 0 1.217-1.057 3.8 3.8 0 0 0 .74-1.358q-.653.345-1.349.625a7 7 0 0 1-1.434.41 5.1 5.1 0 0 0-1.435-.992 4.24 4.24 0 0 0-1.826-.388 4.3 4.3 0 0 0-3.11 1.293q-.585.604-.934 1.402a4.2 4.2 0 0 0-.348 1.704q0 .258.022.517.021.26.065.475-2.74-.13-5.087-1.337a12.45 12.45 0 0 1-4-3.235 4.1 4.1 0 0 0-.61 2.2q0 1.12.544 2.092a4.65 4.65 0 0 0 1.413 1.574q-1.13-.087-2-.56v.042q0 1.639 1.022 2.825a4.4 4.4 0 0 0 2.544 1.488q-.305.086-.587.13a4 4 0 0 1-1 .021 5 5 0 0 1-.413-.064 4.5 4.5 0 0 0 1.543 2.156q1.11.863 2.587.863a8.6 8.6 0 0 1-2.543 1.401 8.8 8.8 0 0 1-3.5.475 7 7 0 0 1-.522-.065q1.477.949 3.195 1.467 1.717.517 3.588.517 3.044 0 5.391-1.143t3.935-2.933A12.6 12.6 0 0 0 27 19.086q.827-2.222.827-4.379z"/></svg>